<mxfile host="Electron" agent="Mozilla/5.0 (Windows NT 10.0; Win64; x64) AppleWebKit/537.36 (KHTML, like Gecko) draw.io/24.7.17 Chrome/128.0.6613.36 Electron/32.0.1 Safari/537.36" version="24.7.17">
  <diagram name="Page-1" id="BxjMQz30Mz_MSCZgBNKB">
    <mxGraphModel dx="1229" dy="599" grid="1" gridSize="10" guides="1" tooltips="1" connect="1" arrows="1" fold="1" page="1" pageScale="1" pageWidth="850" pageHeight="1100" math="0" shadow="0">
      <root>
        <mxCell id="0" />
        <mxCell id="1" parent="0" />
        <mxCell id="Ivkkb6LGn5xkUz7nyGAj-40" style="edgeStyle=orthogonalEdgeStyle;rounded=0;orthogonalLoop=1;jettySize=auto;html=1;entryX=0.5;entryY=0;entryDx=0;entryDy=0;" parent="1" source="Ivkkb6LGn5xkUz7nyGAj-1" target="Ivkkb6LGn5xkUz7nyGAj-39" edge="1">
          <mxGeometry relative="1" as="geometry" />
        </mxCell>
        <mxCell id="Ivkkb6LGn5xkUz7nyGAj-1" value="Старт" style="ellipse;whiteSpace=wrap;html=1;" parent="1" vertex="1">
          <mxGeometry x="350" y="40" width="90" height="50" as="geometry" />
        </mxCell>
        <mxCell id="Ivkkb6LGn5xkUz7nyGAj-2" value="Кінець" style="ellipse;whiteSpace=wrap;html=1;" parent="1" vertex="1">
          <mxGeometry x="414.13" y="1996" width="90" height="50" as="geometry" />
        </mxCell>
        <mxCell id="Ivkkb6LGn5xkUz7nyGAj-11" style="edgeStyle=orthogonalEdgeStyle;rounded=0;orthogonalLoop=1;jettySize=auto;html=1;entryX=0.5;entryY=0;entryDx=0;entryDy=0;exitX=0;exitY=0.5;exitDx=0;exitDy=0;" parent="1" source="Ivkkb6LGn5xkUz7nyGAj-6" target="Ivkkb6LGn5xkUz7nyGAj-9" edge="1">
          <mxGeometry relative="1" as="geometry" />
        </mxCell>
        <mxCell id="Ivkkb6LGn5xkUz7nyGAj-14" style="edgeStyle=orthogonalEdgeStyle;rounded=0;orthogonalLoop=1;jettySize=auto;html=1;entryX=0.5;entryY=0;entryDx=0;entryDy=0;exitX=1;exitY=0.5;exitDx=0;exitDy=0;" parent="1" source="Ivkkb6LGn5xkUz7nyGAj-6" target="Ivkkb6LGn5xkUz7nyGAj-13" edge="1">
          <mxGeometry relative="1" as="geometry" />
        </mxCell>
        <mxCell id="Ivkkb6LGn5xkUz7nyGAj-6" value="Дані були отримані?" style="rhombus;whiteSpace=wrap;html=1;" parent="1" vertex="1">
          <mxGeometry x="325" y="190" width="140" height="70" as="geometry" />
        </mxCell>
        <mxCell id="Ivkkb6LGn5xkUz7nyGAj-17" style="edgeStyle=orthogonalEdgeStyle;rounded=0;orthogonalLoop=1;jettySize=auto;html=1;exitX=0.5;exitY=1;exitDx=0;exitDy=0;entryX=0.5;entryY=0;entryDx=0;entryDy=0;" parent="1" source="Ivkkb6LGn5xkUz7nyGAj-9" target="Ivkkb6LGn5xkUz7nyGAj-16" edge="1">
          <mxGeometry relative="1" as="geometry" />
        </mxCell>
        <mxCell id="Ivkkb6LGn5xkUz7nyGAj-9" value="Визначення прогнозу виробництва енергії відповідно метео-показників на основі минулорічних даних." style="rounded=0;whiteSpace=wrap;html=1;" parent="1" vertex="1">
          <mxGeometry x="138.75" y="280" width="186.25" height="70" as="geometry" />
        </mxCell>
        <mxCell id="Ivkkb6LGn5xkUz7nyGAj-12" value="Ні" style="text;html=1;align=center;verticalAlign=middle;whiteSpace=wrap;rounded=0;" parent="1" vertex="1">
          <mxGeometry x="277.5" y="200" width="60" height="30" as="geometry" />
        </mxCell>
        <mxCell id="Ivkkb6LGn5xkUz7nyGAj-102" style="edgeStyle=orthogonalEdgeStyle;rounded=0;orthogonalLoop=1;jettySize=auto;html=1;entryX=0.5;entryY=0;entryDx=0;entryDy=0;exitX=0.5;exitY=1;exitDx=0;exitDy=0;" parent="1" source="Ivkkb6LGn5xkUz7nyGAj-13" target="Ivkkb6LGn5xkUz7nyGAj-97" edge="1">
          <mxGeometry relative="1" as="geometry">
            <mxPoint x="558.1388888888889" y="355" as="sourcePoint" />
            <mxPoint x="415.005" y="635" as="targetPoint" />
            <Array as="points">
              <mxPoint x="558" y="605" />
              <mxPoint x="415" y="605" />
            </Array>
          </mxGeometry>
        </mxCell>
        <mxCell id="Ivkkb6LGn5xkUz7nyGAj-13" value="Визначення прогнозу виробництва енергії відповідно метео-показників на основі отриманих даних" style="rounded=0;whiteSpace=wrap;html=1;" parent="1" vertex="1">
          <mxGeometry x="465" y="280" width="186.25" height="70" as="geometry" />
        </mxCell>
        <mxCell id="Ivkkb6LGn5xkUz7nyGAj-15" value="Так" style="text;html=1;align=center;verticalAlign=middle;whiteSpace=wrap;rounded=0;" parent="1" vertex="1">
          <mxGeometry x="452.5" y="200" width="60" height="30" as="geometry" />
        </mxCell>
        <mxCell id="Ivkkb6LGn5xkUz7nyGAj-19" style="edgeStyle=orthogonalEdgeStyle;rounded=0;orthogonalLoop=1;jettySize=auto;html=1;exitX=0.5;exitY=1;exitDx=0;exitDy=0;entryX=0.5;entryY=0;entryDx=0;entryDy=0;" parent="1" source="Ivkkb6LGn5xkUz7nyGAj-16" target="Ivkkb6LGn5xkUz7nyGAj-18" edge="1">
          <mxGeometry relative="1" as="geometry" />
        </mxCell>
        <mxCell id="Ivkkb6LGn5xkUz7nyGAj-16" value="Надіслати push-сповіщення про помилку через Telegram бота" style="shape=process;whiteSpace=wrap;html=1;backgroundOutline=1;" parent="1" vertex="1">
          <mxGeometry x="157.81" y="370" width="148.12" height="60" as="geometry" />
        </mxCell>
        <mxCell id="Ivkkb6LGn5xkUz7nyGAj-25" style="edgeStyle=orthogonalEdgeStyle;rounded=0;orthogonalLoop=1;jettySize=auto;html=1;entryX=0.5;entryY=0;entryDx=0;entryDy=0;" parent="1" source="Ivkkb6LGn5xkUz7nyGAj-18" target="Ivkkb6LGn5xkUz7nyGAj-22" edge="1">
          <mxGeometry relative="1" as="geometry" />
        </mxCell>
        <mxCell id="Ivkkb6LGn5xkUz7nyGAj-18" value="Залогувати проблему" style="shape=process;whiteSpace=wrap;html=1;backgroundOutline=1;" parent="1" vertex="1">
          <mxGeometry x="160.77" y="450" width="142.19" height="40" as="geometry" />
        </mxCell>
        <mxCell id="Ivkkb6LGn5xkUz7nyGAj-103" style="edgeStyle=orthogonalEdgeStyle;rounded=0;orthogonalLoop=1;jettySize=auto;html=1;entryX=0.5;entryY=0;entryDx=0;entryDy=0;" parent="1" source="Ivkkb6LGn5xkUz7nyGAj-22" target="Ivkkb6LGn5xkUz7nyGAj-97" edge="1">
          <mxGeometry relative="1" as="geometry" />
        </mxCell>
        <mxCell id="Ivkkb6LGn5xkUz7nyGAj-22" value="Визначення приблизних температурних показників згідно минулорічних даних" style="rounded=0;whiteSpace=wrap;html=1;" parent="1" vertex="1">
          <mxGeometry x="138.75" y="510" width="186.25" height="70" as="geometry" />
        </mxCell>
        <mxCell id="Ivkkb6LGn5xkUz7nyGAj-30" style="edgeStyle=orthogonalEdgeStyle;rounded=0;orthogonalLoop=1;jettySize=auto;html=1;" parent="1" target="Ivkkb6LGn5xkUz7nyGAj-29" edge="1">
          <mxGeometry relative="1" as="geometry">
            <mxPoint x="415" y="790" as="sourcePoint" />
          </mxGeometry>
        </mxCell>
        <mxCell id="Ivkkb6LGn5xkUz7nyGAj-33" style="edgeStyle=orthogonalEdgeStyle;rounded=0;orthogonalLoop=1;jettySize=auto;html=1;entryX=0.5;entryY=0;entryDx=0;entryDy=0;" parent="1" source="Ivkkb6LGn5xkUz7nyGAj-27" target="Ivkkb6LGn5xkUz7nyGAj-32" edge="1">
          <mxGeometry relative="1" as="geometry" />
        </mxCell>
        <mxCell id="Ivkkb6LGn5xkUz7nyGAj-27" value="Зробити прогноз за допомогою нейро-моделі, споживання на 24 години наперед." style="rounded=0;whiteSpace=wrap;html=1;" parent="1" vertex="1">
          <mxGeometry x="155.46" y="870" width="147.5" height="60" as="geometry" />
        </mxCell>
        <mxCell id="Ivkkb6LGn5xkUz7nyGAj-31" style="edgeStyle=orthogonalEdgeStyle;rounded=0;orthogonalLoop=1;jettySize=auto;html=1;entryX=0.5;entryY=0;entryDx=0;entryDy=0;" parent="1" source="Ivkkb6LGn5xkUz7nyGAj-29" target="Ivkkb6LGn5xkUz7nyGAj-27" edge="1">
          <mxGeometry relative="1" as="geometry" />
        </mxCell>
        <mxCell id="Ivkkb6LGn5xkUz7nyGAj-57" style="edgeStyle=orthogonalEdgeStyle;rounded=0;orthogonalLoop=1;jettySize=auto;html=1;entryX=0.5;entryY=0;entryDx=0;entryDy=0;exitX=1;exitY=0.5;exitDx=0;exitDy=0;" parent="1" source="Ivkkb6LGn5xkUz7nyGAj-29" target="Ivkkb6LGn5xkUz7nyGAj-50" edge="1">
          <mxGeometry relative="1" as="geometry">
            <Array as="points">
              <mxPoint x="640" y="845" />
              <mxPoint x="640" y="1010" />
              <mxPoint x="434" y="1010" />
            </Array>
          </mxGeometry>
        </mxCell>
        <mxCell id="Ivkkb6LGn5xkUz7nyGAj-29" value="Дані були отримані?" style="rhombus;whiteSpace=wrap;html=1;" parent="1" vertex="1">
          <mxGeometry x="345" y="810" width="140" height="70" as="geometry" />
        </mxCell>
        <mxCell id="Ivkkb6LGn5xkUz7nyGAj-56" style="edgeStyle=orthogonalEdgeStyle;rounded=0;orthogonalLoop=1;jettySize=auto;html=1;entryX=0.5;entryY=0;entryDx=0;entryDy=0;exitX=0.5;exitY=1;exitDx=0;exitDy=0;" parent="1" source="Ivkkb6LGn5xkUz7nyGAj-32" target="Ivkkb6LGn5xkUz7nyGAj-50" edge="1">
          <mxGeometry relative="1" as="geometry" />
        </mxCell>
        <mxCell id="Ivkkb6LGn5xkUz7nyGAj-32" value="Push-сповіщення &amp;amp; логування" style="shape=process;whiteSpace=wrap;html=1;backgroundOutline=1;" parent="1" vertex="1">
          <mxGeometry x="154.84" y="950" width="148.12" height="40" as="geometry" />
        </mxCell>
        <mxCell id="Ivkkb6LGn5xkUz7nyGAj-37" value="Ні" style="text;html=1;align=center;verticalAlign=middle;whiteSpace=wrap;rounded=0;" parent="1" vertex="1">
          <mxGeometry x="302.96" y="820" width="60" height="30" as="geometry" />
        </mxCell>
        <mxCell id="Ivkkb6LGn5xkUz7nyGAj-41" style="edgeStyle=orthogonalEdgeStyle;rounded=0;orthogonalLoop=1;jettySize=auto;html=1;" parent="1" source="Ivkkb6LGn5xkUz7nyGAj-39" target="Ivkkb6LGn5xkUz7nyGAj-6" edge="1">
          <mxGeometry relative="1" as="geometry" />
        </mxCell>
        <mxCell id="Ivkkb6LGn5xkUz7nyGAj-39" value="Отримати погодні&amp;nbsp;&lt;div&gt;дані з API&amp;nbsp;&lt;/div&gt;&lt;div&gt;метеослужб&lt;/div&gt;" style="shape=parallelogram;perimeter=parallelogramPerimeter;whiteSpace=wrap;html=1;fixedSize=1;" parent="1" vertex="1">
          <mxGeometry x="320" y="110" width="150" height="60" as="geometry" />
        </mxCell>
        <mxCell id="Ivkkb6LGn5xkUz7nyGAj-42" value="Отримати дані про поточне споживання." style="shape=parallelogram;perimeter=parallelogramPerimeter;whiteSpace=wrap;html=1;fixedSize=1;" parent="1" vertex="1">
          <mxGeometry x="340" y="730" width="150" height="60" as="geometry" />
        </mxCell>
        <mxCell id="ppZukQ2vx3Cr6gE9uGFA-11" style="edgeStyle=orthogonalEdgeStyle;rounded=0;orthogonalLoop=1;jettySize=auto;html=1;" edge="1" parent="1" source="Ivkkb6LGn5xkUz7nyGAj-43">
          <mxGeometry relative="1" as="geometry">
            <mxPoint x="225.37999999999988" y="1250" as="targetPoint" />
          </mxGeometry>
        </mxCell>
        <mxCell id="Ivkkb6LGn5xkUz7nyGAj-43" value="Отримати дані про вироблення з джерел відновлювальної енергії." style="shape=parallelogram;perimeter=parallelogramPerimeter;whiteSpace=wrap;html=1;fixedSize=1;" parent="1" vertex="1">
          <mxGeometry x="139.13" y="1146" width="172.5" height="80" as="geometry" />
        </mxCell>
        <mxCell id="ppZukQ2vx3Cr6gE9uGFA-10" style="edgeStyle=orthogonalEdgeStyle;rounded=0;orthogonalLoop=1;jettySize=auto;html=1;" edge="1" parent="1" source="Ivkkb6LGn5xkUz7nyGAj-46">
          <mxGeometry relative="1" as="geometry">
            <mxPoint x="434.1300000000001" y="1250" as="targetPoint" />
          </mxGeometry>
        </mxCell>
        <mxCell id="Ivkkb6LGn5xkUz7nyGAj-46" value="Отримати дані про вироблення з джерел теплової енергії." style="shape=parallelogram;perimeter=parallelogramPerimeter;whiteSpace=wrap;html=1;fixedSize=1;" parent="1" vertex="1">
          <mxGeometry x="347.88" y="1146" width="172.5" height="80" as="geometry" />
        </mxCell>
        <mxCell id="ppZukQ2vx3Cr6gE9uGFA-9" style="edgeStyle=orthogonalEdgeStyle;rounded=0;orthogonalLoop=1;jettySize=auto;html=1;" edge="1" parent="1" source="Ivkkb6LGn5xkUz7nyGAj-47">
          <mxGeometry relative="1" as="geometry">
            <mxPoint x="651.6300000000001" y="1250" as="targetPoint" />
          </mxGeometry>
        </mxCell>
        <mxCell id="Ivkkb6LGn5xkUz7nyGAj-47" value="Отримати дані&amp;nbsp;&lt;div&gt;про наявність газу/рідкого&lt;div&gt;&amp;nbsp;палива/твердого палива&lt;/div&gt;&lt;/div&gt;" style="shape=parallelogram;perimeter=parallelogramPerimeter;whiteSpace=wrap;html=1;fixedSize=1;" parent="1" vertex="1">
          <mxGeometry x="561.63" y="1146" width="180" height="80" as="geometry" />
        </mxCell>
        <mxCell id="ppZukQ2vx3Cr6gE9uGFA-5" style="edgeStyle=orthogonalEdgeStyle;rounded=0;orthogonalLoop=1;jettySize=auto;html=1;" edge="1" parent="1" source="Ivkkb6LGn5xkUz7nyGAj-50">
          <mxGeometry relative="1" as="geometry">
            <mxPoint x="433.75" y="1110" as="targetPoint" />
          </mxGeometry>
        </mxCell>
        <mxCell id="Ivkkb6LGn5xkUz7nyGAj-50" value="Отримання даних про вироблення/наявність джерел енергії" style="shape=process;whiteSpace=wrap;html=1;backgroundOutline=1;" parent="1" vertex="1">
          <mxGeometry x="343.75" y="1030" width="180" height="60" as="geometry" />
        </mxCell>
        <mxCell id="Ivkkb6LGn5xkUz7nyGAj-58" value="Так" style="text;html=1;align=center;verticalAlign=middle;whiteSpace=wrap;rounded=0;" parent="1" vertex="1">
          <mxGeometry x="470" y="820" width="60" height="30" as="geometry" />
        </mxCell>
        <mxCell id="Ivkkb6LGn5xkUz7nyGAj-66" style="edgeStyle=orthogonalEdgeStyle;rounded=0;orthogonalLoop=1;jettySize=auto;html=1;exitX=0;exitY=0.5;exitDx=0;exitDy=0;entryX=0.5;entryY=0;entryDx=0;entryDy=0;" parent="1" source="Ivkkb6LGn5xkUz7nyGAj-59" target="Ivkkb6LGn5xkUz7nyGAj-65" edge="1">
          <mxGeometry relative="1" as="geometry" />
        </mxCell>
        <mxCell id="Ivkkb6LGn5xkUz7nyGAj-73" style="edgeStyle=orthogonalEdgeStyle;rounded=0;orthogonalLoop=1;jettySize=auto;html=1;entryX=0.5;entryY=0;entryDx=0;entryDy=0;exitX=1;exitY=0.5;exitDx=0;exitDy=0;" parent="1" source="Ivkkb6LGn5xkUz7nyGAj-59" target="Ivkkb6LGn5xkUz7nyGAj-72" edge="1">
          <mxGeometry relative="1" as="geometry" />
        </mxCell>
        <mxCell id="Ivkkb6LGn5xkUz7nyGAj-59" value="Дані були отримані?" style="rhombus;whiteSpace=wrap;html=1;" parent="1" vertex="1">
          <mxGeometry x="364.13" y="1276" width="140" height="70" as="geometry" />
        </mxCell>
        <mxCell id="Ivkkb6LGn5xkUz7nyGAj-69" style="edgeStyle=orthogonalEdgeStyle;rounded=0;orthogonalLoop=1;jettySize=auto;html=1;exitX=0.5;exitY=1;exitDx=0;exitDy=0;entryX=0.5;entryY=0;entryDx=0;entryDy=0;" parent="1" source="Ivkkb6LGn5xkUz7nyGAj-64" target="Ivkkb6LGn5xkUz7nyGAj-68" edge="1">
          <mxGeometry relative="1" as="geometry" />
        </mxCell>
        <mxCell id="Ivkkb6LGn5xkUz7nyGAj-64" value="Надіслати сигнали вимкнення всім пристроям." style="rounded=0;whiteSpace=wrap;html=1;" parent="1" vertex="1">
          <mxGeometry x="216.63" y="1406" width="147.5" height="60" as="geometry" />
        </mxCell>
        <mxCell id="Ivkkb6LGn5xkUz7nyGAj-67" style="edgeStyle=orthogonalEdgeStyle;rounded=0;orthogonalLoop=1;jettySize=auto;html=1;exitX=0.5;exitY=1;exitDx=0;exitDy=0;entryX=0.5;entryY=0;entryDx=0;entryDy=0;" parent="1" source="Ivkkb6LGn5xkUz7nyGAj-65" target="Ivkkb6LGn5xkUz7nyGAj-64" edge="1">
          <mxGeometry relative="1" as="geometry" />
        </mxCell>
        <mxCell id="Ivkkb6LGn5xkUz7nyGAj-65" value="Push-сповіщення &amp;amp; логування" style="shape=process;whiteSpace=wrap;html=1;backgroundOutline=1;" parent="1" vertex="1">
          <mxGeometry x="215.22" y="1346" width="148.12" height="40" as="geometry" />
        </mxCell>
        <mxCell id="Ivkkb6LGn5xkUz7nyGAj-94" style="edgeStyle=orthogonalEdgeStyle;rounded=0;orthogonalLoop=1;jettySize=auto;html=1;entryX=0.5;entryY=0;entryDx=0;entryDy=0;" parent="1" source="Ivkkb6LGn5xkUz7nyGAj-68" target="Ivkkb6LGn5xkUz7nyGAj-2" edge="1">
          <mxGeometry relative="1" as="geometry">
            <Array as="points">
              <mxPoint x="290.38" y="1966" />
              <mxPoint x="459.38" y="1966" />
            </Array>
          </mxGeometry>
        </mxCell>
        <mxCell id="Ivkkb6LGn5xkUz7nyGAj-68" value="Сигнал про закінчення роботи системи" style="rounded=0;whiteSpace=wrap;html=1;" parent="1" vertex="1">
          <mxGeometry x="216.63" y="1486" width="147.5" height="60" as="geometry" />
        </mxCell>
        <mxCell id="Ivkkb6LGn5xkUz7nyGAj-70" value="Ні" style="text;html=1;align=center;verticalAlign=middle;whiteSpace=wrap;rounded=0;" parent="1" vertex="1">
          <mxGeometry x="320.38" y="1286" width="60" height="30" as="geometry" />
        </mxCell>
        <mxCell id="Ivkkb6LGn5xkUz7nyGAj-76" style="edgeStyle=orthogonalEdgeStyle;rounded=0;orthogonalLoop=1;jettySize=auto;html=1;entryX=0.5;entryY=0;entryDx=0;entryDy=0;" parent="1" source="Ivkkb6LGn5xkUz7nyGAj-72" target="Ivkkb6LGn5xkUz7nyGAj-75" edge="1">
          <mxGeometry relative="1" as="geometry" />
        </mxCell>
        <mxCell id="Ivkkb6LGn5xkUz7nyGAj-72" value="Порівняти дані з прогнозом. Надіслати сигнали про зменшення/збільшення вироблення енергії" style="rounded=0;whiteSpace=wrap;html=1;" parent="1" vertex="1">
          <mxGeometry x="500.38" y="1356" width="170" height="90" as="geometry" />
        </mxCell>
        <mxCell id="Ivkkb6LGn5xkUz7nyGAj-74" value="Так" style="text;html=1;align=center;verticalAlign=middle;whiteSpace=wrap;rounded=0;" parent="1" vertex="1">
          <mxGeometry x="490.38" y="1286" width="60" height="30" as="geometry" />
        </mxCell>
        <mxCell id="Ivkkb6LGn5xkUz7nyGAj-78" style="edgeStyle=orthogonalEdgeStyle;rounded=0;orthogonalLoop=1;jettySize=auto;html=1;" parent="1" source="Ivkkb6LGn5xkUz7nyGAj-75" target="Ivkkb6LGn5xkUz7nyGAj-77" edge="1">
          <mxGeometry relative="1" as="geometry" />
        </mxCell>
        <mxCell id="Ivkkb6LGn5xkUz7nyGAj-75" value="Обрати основне джерело з вироблення енергії. Зробити вибір з врахуванням налаштувань користувача" style="rounded=0;whiteSpace=wrap;html=1;" parent="1" vertex="1">
          <mxGeometry x="500.38" y="1466" width="170" height="90" as="geometry" />
        </mxCell>
        <mxCell id="Ivkkb6LGn5xkUz7nyGAj-81" style="edgeStyle=orthogonalEdgeStyle;rounded=0;orthogonalLoop=1;jettySize=auto;html=1;exitX=0;exitY=0.5;exitDx=0;exitDy=0;entryX=0.5;entryY=0;entryDx=0;entryDy=0;" parent="1" source="Ivkkb6LGn5xkUz7nyGAj-77" target="Ivkkb6LGn5xkUz7nyGAj-79" edge="1">
          <mxGeometry relative="1" as="geometry" />
        </mxCell>
        <mxCell id="Ivkkb6LGn5xkUz7nyGAj-92" style="edgeStyle=orthogonalEdgeStyle;rounded=0;orthogonalLoop=1;jettySize=auto;html=1;entryX=0.5;entryY=0;entryDx=0;entryDy=0;exitX=1;exitY=0.5;exitDx=0;exitDy=0;" parent="1" source="Ivkkb6LGn5xkUz7nyGAj-77" target="Ivkkb6LGn5xkUz7nyGAj-91" edge="1">
          <mxGeometry relative="1" as="geometry" />
        </mxCell>
        <mxCell id="Ivkkb6LGn5xkUz7nyGAj-77" value="Чи вистачає енергії?" style="rhombus;whiteSpace=wrap;html=1;" parent="1" vertex="1">
          <mxGeometry x="515.38" y="1586" width="140" height="70" as="geometry" />
        </mxCell>
        <mxCell id="Ivkkb6LGn5xkUz7nyGAj-84" style="edgeStyle=orthogonalEdgeStyle;rounded=0;orthogonalLoop=1;jettySize=auto;html=1;entryX=0.5;entryY=0;entryDx=0;entryDy=0;" parent="1" source="Ivkkb6LGn5xkUz7nyGAj-79" target="Ivkkb6LGn5xkUz7nyGAj-83" edge="1">
          <mxGeometry relative="1" as="geometry" />
        </mxCell>
        <mxCell id="Ivkkb6LGn5xkUz7nyGAj-79" value="Активація додаткових джерел енергії/споживання з акумулятору." style="rounded=0;whiteSpace=wrap;html=1;" parent="1" vertex="1">
          <mxGeometry x="374.13" y="1676" width="170" height="60" as="geometry" />
        </mxCell>
        <mxCell id="Ivkkb6LGn5xkUz7nyGAj-82" value="Ні" style="text;html=1;align=center;verticalAlign=middle;whiteSpace=wrap;rounded=0;" parent="1" vertex="1">
          <mxGeometry x="470.38" y="1596" width="60" height="30" as="geometry" />
        </mxCell>
        <mxCell id="Ivkkb6LGn5xkUz7nyGAj-86" style="edgeStyle=orthogonalEdgeStyle;rounded=0;orthogonalLoop=1;jettySize=auto;html=1;entryX=0.5;entryY=0;entryDx=0;entryDy=0;" parent="1" source="Ivkkb6LGn5xkUz7nyGAj-83" target="Ivkkb6LGn5xkUz7nyGAj-85" edge="1">
          <mxGeometry relative="1" as="geometry" />
        </mxCell>
        <mxCell id="Ivkkb6LGn5xkUz7nyGAj-83" value="Push-сповіщення &amp;amp; логування" style="shape=process;whiteSpace=wrap;html=1;backgroundOutline=1;" parent="1" vertex="1">
          <mxGeometry x="385.07" y="1756" width="148.12" height="40" as="geometry" />
        </mxCell>
        <mxCell id="Ivkkb6LGn5xkUz7nyGAj-90" style="edgeStyle=orthogonalEdgeStyle;rounded=0;orthogonalLoop=1;jettySize=auto;html=1;entryX=0.5;entryY=0;entryDx=0;entryDy=0;entryPerimeter=0;" parent="1" source="Ivkkb6LGn5xkUz7nyGAj-85" target="Ivkkb6LGn5xkUz7nyGAj-89" edge="1">
          <mxGeometry relative="1" as="geometry" />
        </mxCell>
        <mxCell id="Ivkkb6LGn5xkUz7nyGAj-85" value="Записати всі дані в базу даних." style="rounded=0;whiteSpace=wrap;html=1;" parent="1" vertex="1">
          <mxGeometry x="512.88" y="1836" width="170" height="40" as="geometry" />
        </mxCell>
        <mxCell id="Ivkkb6LGn5xkUz7nyGAj-88" value="Так" style="text;html=1;align=center;verticalAlign=middle;whiteSpace=wrap;rounded=0;" parent="1" vertex="1">
          <mxGeometry x="651.63" y="1596" width="60" height="30" as="geometry" />
        </mxCell>
        <mxCell id="Ivkkb6LGn5xkUz7nyGAj-95" style="edgeStyle=orthogonalEdgeStyle;rounded=0;orthogonalLoop=1;jettySize=auto;html=1;entryX=0.5;entryY=0;entryDx=0;entryDy=0;" parent="1" source="Ivkkb6LGn5xkUz7nyGAj-89" target="Ivkkb6LGn5xkUz7nyGAj-2" edge="1">
          <mxGeometry relative="1" as="geometry">
            <Array as="points">
              <mxPoint x="598.38" y="1966" />
              <mxPoint x="459.38" y="1966" />
            </Array>
          </mxGeometry>
        </mxCell>
        <mxCell id="Ivkkb6LGn5xkUz7nyGAj-89" value="Візуалізувати дані відносно споживання та вироблення." style="rounded=0;whiteSpace=wrap;html=1;" parent="1" vertex="1">
          <mxGeometry x="512.88" y="1896" width="170" height="40" as="geometry" />
        </mxCell>
        <mxCell id="Ivkkb6LGn5xkUz7nyGAj-93" style="edgeStyle=orthogonalEdgeStyle;rounded=0;orthogonalLoop=1;jettySize=auto;html=1;entryX=0.5;entryY=0;entryDx=0;entryDy=0;" parent="1" source="Ivkkb6LGn5xkUz7nyGAj-91" target="Ivkkb6LGn5xkUz7nyGAj-85" edge="1">
          <mxGeometry relative="1" as="geometry">
            <Array as="points">
              <mxPoint x="695.38" y="1816" />
              <mxPoint x="598.38" y="1816" />
            </Array>
          </mxGeometry>
        </mxCell>
        <mxCell id="Ivkkb6LGn5xkUz7nyGAj-91" value="Прийняти рішення щодо оптимізації вироблення енергії відносно зібраних даних." style="rounded=0;whiteSpace=wrap;html=1;" parent="1" vertex="1">
          <mxGeometry x="610.38" y="1676" width="170" height="80" as="geometry" />
        </mxCell>
        <mxCell id="Ivkkb6LGn5xkUz7nyGAj-100" style="edgeStyle=orthogonalEdgeStyle;rounded=0;orthogonalLoop=1;jettySize=auto;html=1;entryX=0.5;entryY=0;entryDx=0;entryDy=0;" parent="1" source="Ivkkb6LGn5xkUz7nyGAj-97" target="Ivkkb6LGn5xkUz7nyGAj-42" edge="1">
          <mxGeometry relative="1" as="geometry" />
        </mxCell>
        <mxCell id="Ivkkb6LGn5xkUz7nyGAj-97" value="Визначення приблизного споживання на опалення згідно отриманих даних" style="rounded=0;whiteSpace=wrap;html=1;" parent="1" vertex="1">
          <mxGeometry x="321.88" y="630" width="186.25" height="70" as="geometry" />
        </mxCell>
        <mxCell id="ppZukQ2vx3Cr6gE9uGFA-1" value="" style="endArrow=none;html=1;rounded=0;" edge="1" parent="1">
          <mxGeometry width="50" height="50" relative="1" as="geometry">
            <mxPoint x="160" y="1110" as="sourcePoint" />
            <mxPoint x="740" y="1110" as="targetPoint" />
          </mxGeometry>
        </mxCell>
        <mxCell id="ppZukQ2vx3Cr6gE9uGFA-2" value="" style="endArrow=none;html=1;rounded=0;" edge="1" parent="1">
          <mxGeometry width="50" height="50" relative="1" as="geometry">
            <mxPoint x="160.77" y="1115" as="sourcePoint" />
            <mxPoint x="740.77" y="1115" as="targetPoint" />
          </mxGeometry>
        </mxCell>
        <mxCell id="ppZukQ2vx3Cr6gE9uGFA-3" value="" style="endArrow=none;html=1;rounded=0;" edge="1" parent="1">
          <mxGeometry width="50" height="50" relative="1" as="geometry">
            <mxPoint x="161" y="1250" as="sourcePoint" />
            <mxPoint x="741" y="1250" as="targetPoint" />
          </mxGeometry>
        </mxCell>
        <mxCell id="ppZukQ2vx3Cr6gE9uGFA-4" value="" style="endArrow=none;html=1;rounded=0;" edge="1" parent="1">
          <mxGeometry width="50" height="50" relative="1" as="geometry">
            <mxPoint x="160.77" y="1255" as="sourcePoint" />
            <mxPoint x="740.77" y="1255" as="targetPoint" />
          </mxGeometry>
        </mxCell>
        <mxCell id="ppZukQ2vx3Cr6gE9uGFA-6" value="" style="endArrow=classic;html=1;rounded=0;entryX=0.5;entryY=0;entryDx=0;entryDy=0;" edge="1" parent="1" target="Ivkkb6LGn5xkUz7nyGAj-46">
          <mxGeometry width="50" height="50" relative="1" as="geometry">
            <mxPoint x="434" y="1115" as="sourcePoint" />
            <mxPoint x="434.13" y="1141" as="targetPoint" />
          </mxGeometry>
        </mxCell>
        <mxCell id="ppZukQ2vx3Cr6gE9uGFA-7" value="" style="endArrow=classic;html=1;rounded=0;entryX=0.5;entryY=0;entryDx=0;entryDy=0;" edge="1" parent="1" target="Ivkkb6LGn5xkUz7nyGAj-43">
          <mxGeometry width="50" height="50" relative="1" as="geometry">
            <mxPoint x="225" y="1115" as="sourcePoint" />
            <mxPoint x="225.38" y="1141" as="targetPoint" />
          </mxGeometry>
        </mxCell>
        <mxCell id="ppZukQ2vx3Cr6gE9uGFA-8" value="" style="endArrow=classic;html=1;rounded=0;entryX=0.5;entryY=0;entryDx=0;entryDy=0;" edge="1" parent="1" target="Ivkkb6LGn5xkUz7nyGAj-47">
          <mxGeometry width="50" height="50" relative="1" as="geometry">
            <mxPoint x="652" y="1115" as="sourcePoint" />
            <mxPoint x="640" y="1146" as="targetPoint" />
          </mxGeometry>
        </mxCell>
        <mxCell id="ppZukQ2vx3Cr6gE9uGFA-12" value="" style="endArrow=classic;html=1;rounded=0;entryX=0.5;entryY=0;entryDx=0;entryDy=0;" edge="1" parent="1" target="Ivkkb6LGn5xkUz7nyGAj-59">
          <mxGeometry width="50" height="50" relative="1" as="geometry">
            <mxPoint x="434" y="1255" as="sourcePoint" />
            <mxPoint x="434.1300000000001" y="1271" as="targetPoint" />
          </mxGeometry>
        </mxCell>
      </root>
    </mxGraphModel>
  </diagram>
</mxfile>
